<?xml version="1.0" encoding="UTF-8"?><svg id="a" xmlns="http://www.w3.org/2000/svg" viewBox="0 0 181.4 47.57"><defs><style>.b{fill:#0fc2c3;}.c{fill:#4a4a4a;}</style></defs><path class="c" d="M37.63,6.44c-2.02-1.99-4.39-3.59-7-4.72C27.9,.56,24.97-.03,22,0c-2.94-.02-5.85,.57-8.55,1.72-2.62,1.11-4.99,2.71-7,4.72-2.01,2.01-3.61,4.39-4.72,7C.57,16.15-.02,19.06,0,22v22.12H8.75V22c-.02-1.77,.32-3.53,1-5.16,.67-1.58,1.64-3.01,2.85-4.22,1.21-1.22,2.64-2.18,4.22-2.85,1.63-.68,3.39-1.02,5.16-1,1.79-.02,3.56,.32,5.21,1,1.6,.66,3.05,1.63,4.27,2.85,1.21,1.21,2.18,2.64,2.85,4.22,.68,1.63,1.02,3.39,1,5.16v22.12h8.75V22c.02-2.95-.56-5.88-1.72-8.6-1.1-2.6-2.7-4.97-4.71-6.96Z"/><path class="b" d="M84.9,6.58c-2.08-2.1-4.57-3.76-7.32-4.86-5.32-2.15-11.26-2.15-16.58,0-2.75,1.1-5.24,2.75-7.32,4.86-2.09,2.06-3.73,4.54-4.82,7.27-1.03,2.63-1.57,5.43-1.57,8.26s.54,5.65,1.57,8.3c1.07,2.75,2.72,5.25,4.82,7.32,8.55,8.63,22.48,8.69,31.11,.14l.14-.14,3-3-6.19-6.2-3,3.05c-4,4.07-10.17,5.09-15.27,2.52l24.47-24.47-3.04-3.05Zm-13.71,7.47c-1.67,1.64-3.4,3.36-5.21,5.16l-5.11,5.11-3.58,3.59c-2.54-5.1-1.51-11.25,2.55-15.24,1.96-2.02,4.53-3.34,7.32-3.73,2.71-.4,5.47,.05,7.91,1.28-.92,.92-2.21,2.19-3.88,3.83Z"/><path class="c" d="M179.66,13.51c-1.12-2.62-2.74-4.99-4.76-7-2.02-1.99-4.4-3.59-7-4.71-5.49-2.29-11.66-2.29-17.15,0-5.29,2.22-9.51,6.42-11.75,11.71-1.16,2.72-1.75,5.65-1.72,8.6-.02,2.94,.57,5.85,1.72,8.55,1.12,2.63,2.72,5.03,4.72,7.07,4.11,4.17,9.72,6.51,15.57,6.49,2.95,.02,5.88-.56,8.6-1.72,5.31-2.28,9.53-6.52,11.79-11.84,1.15-2.7,1.74-5.61,1.72-8.55,.02-2.96-.57-5.88-1.74-8.6Zm-8.06,13.8c-.65,1.6-1.62,3.06-2.84,4.28-5.26,5.22-13.74,5.22-19,0-2.5-2.52-3.89-5.93-3.88-9.48-.02-1.77,.32-3.53,1-5.16,.67-1.58,1.64-3.01,2.85-4.22,1.22-1.22,2.67-2.19,4.27-2.85,3.33-1.39,7.09-1.39,10.42,0,1.6,.66,3.06,1.62,4.28,2.85,1.24,1.22,2.22,2.67,2.9,4.27,.68,1.63,1.02,3.39,1,5.16,0,1.77-.33,3.52-1,5.15Z"/><path class="c" d="M132.33,40.21c-1.2-.45-2.3-1.13-3.24-2-.43-.4-.82-.83-1.17-1.3,1.67-1.84,3.02-3.95,4-6.23,1.15-2.7,1.73-5.61,1.72-8.55,.02-2.95-.56-5.88-1.72-8.6-1.12-2.62-2.74-5-4.77-7-2.02-1.99-4.39-3.59-7-4.71-5.49-2.29-11.66-2.29-17.15,0-5.31,2.21-9.54,6.4-11.79,11.69-1.16,2.72-1.75,5.65-1.72,8.6-.02,2.94,.57,5.85,1.72,8.55,1.11,2.63,2.71,5.03,4.71,7.07,4.11,4.17,9.73,6.51,15.58,6.49,2.95,.02,5.88-.56,8.6-1.72,.91-.4,1.79-.85,2.64-1.35,.54,.72,1.14,1.39,1.8,2,1.56,1.45,3.38,2.58,5.37,3.35,1.88,.72,3.87,1.08,5.88,1.07h.67l-.25-6.7c-1.32,.05-2.65-.18-3.88-.66Zm-33.16-23.21c.66-1.59,1.62-3.04,2.83-4.27,1.22-1.23,2.67-2.2,4.27-2.85,3.33-1.39,7.09-1.39,10.42,0,1.61,.65,3.08,1.62,4.31,2.85,1.21,1.23,2.17,2.68,2.83,4.27,.68,1.63,1.02,3.39,1,5.16,.02,1.78-.32,3.55-1,5.2-.13,.34-.28,.67-.45,1-.46-.65-.98-1.27-1.55-1.83-1.34-1.31-2.9-2.36-4.62-3.1-1.8-.77-3.73-1.16-5.69-1.15-1.94,0-3.86,.38-5.65,1.14-1.73,.73-3.31,1.79-4.64,3.12-.58,.58-1.11,1.22-1.58,1.89-.17-.33-.34-.67-.48-1-.68-1.65-1.02-3.42-1-5.2-.03-1.79,.31-3.57,1-5.23h0Zm12.33,18.47c-1.79,.02-3.56-.32-5.21-1-.32-.14-.63-.29-.94-.45,.69-1.56,1.95-2.79,3.53-3.44,1.69-.69,3.58-.69,5.27,0,1.58,.64,2.84,1.87,3.53,3.42-.31,.16-.64,.32-1,.46-1.64,.68-3.4,1.02-5.18,1.01Z"/></svg>